<svg width="148" height="148" viewBox="0 0 148 148" fill="none" xmlns="http://www.w3.org/2000/svg">
<path opacity="0.35" d="M104.833 49.3337C104.833 66.3537 91.0194 80.167 73.9994 80.167C56.9794 80.167 43.166 66.3537 43.166 49.3337C43.166 47.237 43.351 45.1403 43.7827 43.167H104.216C104.648 45.1403 104.833 47.237 104.833 49.3337Z" fill="#918668"/>
<path d="M110.777 39.7445L108.255 35.9643C105.992 32.5665 104.327 28.811 103.34 24.852C100.59 13.8692 90.723 6.16699 79.4072 6.16699H68.5909C57.275 6.16699 47.4084 13.8692 44.6642 24.852C43.6714 28.811 42.0125 32.5727 39.7494 35.9643L37.221 39.7445C34.4892 43.8453 37.4307 49.3337 42.3579 49.3337H105.646C110.567 49.3337 113.509 43.8453 110.777 39.7445ZM73.999 37.0003C70.595 37.0003 67.8324 34.2377 67.8324 30.8337C67.8324 27.4297 70.595 24.667 73.999 24.667C77.403 24.667 80.1657 27.4297 80.1657 30.8337C80.1657 34.2377 77.403 37.0003 73.999 37.0003Z" fill="#918668"/>
<path opacity="0.35" d="M74.0006 37.0003C77.4064 37.0003 80.1673 34.2394 80.1673 30.8337C80.1673 27.4279 77.4064 24.667 74.0006 24.667C70.5949 24.667 67.834 27.4279 67.834 30.8337C67.834 34.2394 70.5949 37.0003 74.0006 37.0003Z" fill="#918668"/>
<path opacity="0.35" d="M19.6348 111H37.0001C43.8143 111 49.3334 105.481 49.3334 98.667C42.1123 98.667 31.0123 98.667 30.8334 98.667C22.7921 98.667 22.1816 103.828 19.6348 111Z" fill="#918668"/>
<path opacity="0.35" d="M128.365 111C125.818 103.828 119.041 98.667 110.999 98.667C110.839 98.667 105.9 98.667 98.666 98.667C98.666 105.481 104.185 111 110.999 111H128.365Z" fill="#918668"/>
<path d="M111 111C104.186 111 98.6667 105.481 98.6667 98.667C84.9767 98.667 63.0295 98.667 49.3333 98.667C49.3333 105.481 43.8142 111 37 111H19.6347C18.944 112.937 18.5 114.99 18.5 117.167C18.5 127.385 26.7818 135.667 37 135.667C37.7277 135.667 110.315 135.667 111 135.667C121.218 135.667 129.5 127.385 129.5 117.167C129.5 114.99 129.056 112.937 128.365 111H111Z" fill="#918668"/>
</svg>
